<svg
  id="svg-global"
  xmlns="http://www.w3.org/2000/svg"
  fill="none"
  viewBox="0 0 94 136"
  height="136"
  width="94"
>
  <style>
    #svg-global {
      overflow: visible;
    }

    @keyframes fade-particles {
      0%,
      100% {
        opacity: 1;
      }
      50% {
        opacity: 0.5;
      }
    }

    @keyframes floatUp {
      0% {
        transform: translateY(0);
        opacity: 0;
      }
      10% {
        opacity: 1;
      }
      100% {
        transform: translateY(-40px);
        opacity: 0;
      }
    }

    #particles {
      animation: fade-particles 5s infinite alternate;
      transform-origin: center;
    }

    .particle {
      animation: floatUp linear infinite;
      transform-origin: center;
    }

    .p1 {
      animation-duration: 2.2s;
      animation-delay: 0s;
    }
    .p2 {
      animation-duration: 2.5s;
      animation-delay: 0.3s;
    }
    .p3 {
      animation-duration: 2s;
      animation-delay: 0.6s;
    }
    .p4 {
      animation-duration: 2.8s;
      animation-delay: 0.2s;
    }
    .p5 {
      animation-duration: 2.3s;
      animation-delay: 0.4s;
    }
    .p6 {
      animation-duration: 3s;
      animation-delay: 0.1s;
    }
    .p7 {
      animation-duration: 2.1s;
      animation-delay: 0.5s;
    }
    .p8 {
      animation-duration: 2.6s;
      animation-delay: 0.2s;
    }
    .p9 {
      animation-duration: 2.4s;
      animation-delay: 0.3s;
    }

    @keyframes bounce-lines {
      0%,
      100% {
        transform: translateY(0);
      }
      50% {
        transform: translateY(-3px);
      }
    }

    #line-v1,
    #line-v2,
    #node-server,
    #panel-rigth,
    #reflectores,
    #particles {
      animation: bounce-lines 3s ease-in-out infinite alternate;
      transform-origin: center;
    }

    #line-v2 {
      animation-delay: 0.2s;
    }

    #node-server,
    #panel-rigth,
    #reflectores,
    #particles {
      animation-delay: 0.4s;
    }
  </style>

  <path
    stroke="#2f7cff"
    d="M87.3629 108.433L49.1073 85.3765C47.846 84.6163 45.8009 84.6163 44.5395 85.3765L6.28392 108.433C5.02255 109.194 5.02255 110.426 6.28392 111.187L44.5395 134.243C45.8009 135.004 47.846 135.004 49.1073 134.243L87.3629 111.187C88.6243 110.426 88.6243 109.194 87.3629 108.433Z"
    id="line-v1"
  ></path>
  <path
    stroke="#3a95ff"
    d="M91.0928 95.699L49.2899 70.5042C47.9116 69.6734 45.6769 69.6734 44.2986 70.5042L2.49568 95.699C1.11735 96.5298 1.11735 97.8767 2.49568 98.7074L44.2986 123.902C45.6769 124.733 47.9116 124.733 49.2899 123.902L91.0928 98.7074C92.4712 97.8767 92.4712 96.5298 91.0928 95.699Z"
    id="line-v2"
  ></path>
  <g id="node-server">
    <path
      fill="url(#paint0_linear_204_217)"
      d="M2.48637 72.0059L43.8699 96.9428C45.742 98.0709 48.281 97.8084 50.9284 96.2133L91.4607 71.7833C92.1444 71.2621 92.4197 70.9139 92.5421 70.1257V86.1368C92.5421 86.9686 92.0025 87.9681 91.3123 88.3825C84.502 92.4724 51.6503 112.204 50.0363 113.215C48.2352 114.343 45.3534 114.343 43.5523 113.215C41.9261 112.197 8.55699 91.8662 2.08967 87.926C1.39197 87.5011 1.00946 86.5986 1.00946 85.4058V70.1257C1.11219 70.9289 1.49685 71.3298 2.48637 72.0059Z"
    ></path>
    <path
      stroke="url(#paint2_linear_204_217)"
      fill="url(#paint1_linear_204_217)"
      d="M91.0928 68.7324L49.2899 43.5375C47.9116 42.7068 45.6769 42.7068 44.2986 43.5375L2.49568 68.7324C1.11735 69.5631 1.11735 70.91 2.49568 71.7407L44.2986 96.9356C45.6769 97.7663 47.9116 97.7663 49.2899 96.9356L91.0928 71.7407C92.4712 70.91 92.4712 69.5631 91.0928 68.7324Z"
    ></path>
  </g>
  <g id="particles">
    <path
      fill="url(#paint3_linear_204_217)"
      d="M43.5482 32.558C44.5429 32.558 45.3493 31.7162 45.3493 30.6778C45.3493 29.6394 44.5429 28.7976 43.5482 28.7976C42.5535 28.7976 41.7471 29.6394 41.7471 30.6778C41.7471 31.7162 42.5535 32.558 43.5482 32.558Z"
      class="particle p1"
    ></path>
    <path
      fill="url(#paint4_linear_204_217)"
      d="M50.0323 48.3519C51.027 48.3519 51.8334 47.5101 51.8334 46.4717C51.8334 45.4333 51.027 44.5915 50.0323 44.5915C49.0375 44.5915 48.2311 45.4333 48.2311 46.4717C48.2311 47.5101 49.0375 48.3519 50.0323 48.3519Z"
      class="particle p2"
    ></path>
    <path
      fill="url(#paint5_linear_204_217)"
      d="M40.3062 62.6416C41.102 62.6416 41.7471 61.9681 41.7471 61.1374C41.7471 60.3067 41.102 59.6332 40.3062 59.6332C39.5104 59.6332 38.8653 60.3067 38.8653 61.1374C38.8653 61.9681 39.5104 62.6416 40.3062 62.6416Z"
      class="particle p3"
    ></path>
    <path
      fill="url(#paint6_linear_204_217)"
      d="M50.7527 73.9229C52.1453 73.9229 53.2743 72.7444 53.2743 71.2906C53.2743 69.8368 52.1453 68.6583 50.7527 68.6583C49.3601 68.6583 48.2311 69.8368 48.2311 71.2906C48.2311 72.7444 49.3601 73.9229 50.7527 73.9229Z"
      class="particle p4"
    ></path>
    <path
      fill="url(#paint7_linear_204_217)"
      d="M48.5913 76.9312C49.1882 76.9312 49.672 76.4262 49.672 75.8031C49.672 75.1801 49.1882 74.675 48.5913 74.675C47.9945 74.675 47.5107 75.1801 47.5107 75.8031C47.5107 76.4262 47.9945 76.9312 48.5913 76.9312Z"
      class="particle p5"
    ></path>
    <path
      fill="url(#paint8_linear_204_217)"
      d="M52.9153 67.1541C53.115 67.1541 53.2768 66.9858 53.2768 66.7781C53.2768 66.5704 53.115 66.402 52.9153 66.402C52.7156 66.402 52.5538 66.5704 52.5538 66.7781C52.5538 66.9858 52.7156 67.1541 52.9153 67.1541Z"
      class="particle p6"
    ></path>
    <path
      fill="url(#paint9_linear_204_217)"
      d="M52.1936 43.8394C52.7904 43.8394 53.2743 43.3344 53.2743 42.7113C53.2743 42.0883 52.7904 41.5832 52.1936 41.5832C51.5967 41.5832 51.1129 42.0883 51.1129 42.7113C51.1129 43.3344 51.5967 43.8394 52.1936 43.8394Z"
      class="particle p7"
    ></path>
    <path
      fill="url(#paint10_linear_204_217)"
      d="M57.2367 29.5497C57.8335 29.5497 58.3173 29.0446 58.3173 28.4216C58.3173 27.7985 57.8335 27.2935 57.2367 27.2935C56.6398 27.2935 56.156 27.7985 56.156 28.4216C56.156 29.0446 56.6398 29.5497 57.2367 29.5497Z"
      class="particle p8"
    ></path>
    <path
      fill="url(#paint11_linear_204_217)"
      d="M43.9084 34.8144C44.3063 34.8144 44.6289 34.4777 44.6289 34.0623C44.6289 33.647 44.3063 33.3102 43.9084 33.3102C43.5105 33.3102 43.188 33.647 43.188 34.0623C43.188 34.4777 43.5105 34.8144 43.9084 34.8144Z"
      class="particle p9"
    ></path>
  </g>
  <defs>
    <linearGradient gradientUnits="userSpaceOnUse" y2="92.0933" x2="92.5421" y1="92.0933" x1="1.00946" id="paint0_linear_204_217">
      <stop stop-color="#1c9cff"></stop>
      <stop stop-color="#2f67d1" offset="1"></stop>
    </linearGradient>
    <linearGradient gradientUnits="userSpaceOnUse" y2="91.1638" x2="6.72169" y1="70" x1="92.5" id="paint1_linear_204_217">
      <stop stop-color="#2f7dff"></stop>
      <stop stop-color="#24499f" offset="0.29"></stop>
      <stop stop-color="#2f8de7" offset="1"></stop>
    </linearGradient>
    <linearGradient gradientUnits="userSpaceOnUse" y2="85.0762" x2="3.55544" y1="70" x1="92.5" id="paint2_linear_204_217">
      <stop stop-color="#91ddfb"></stop>
      <stop stop-color="#3d87ff" offset="1"></stop>
    </linearGradient>
    <linearGradient gradientUnits="userSpaceOnUse" y2="32.558" x2="43.5482" y1="28.7976" x1="43.5482" id="paint3_linear_204_217">
      <stop stop-color="#2f7cff"></stop>
      <stop stop-color="#91ddfb" offset="1"></stop>
    </linearGradient>
    <linearGradient gradientUnits="userSpaceOnUse" y2="48.3519" x2="50.0323" y1="44.5915" x1="50.0323" id="paint4_linear_204_217">
      <stop stop-color="#2f7cff"></stop>
      <stop stop-color="#91ddfb" offset="1"></stop>
    </linearGradient>
    <linearGradient gradientUnits="userSpaceOnUse" y2="62.6416" x2="40.3062" y1="59.6332" x1="40.3062" id="paint5_linear_204_217">
      <stop stop-color="#2f7cff"></stop>
      <stop stop-color="#91ddfb" offset="1"></stop>
    </linearGradient>
    <linearGradient gradientUnits="userSpaceOnUse" y2="73.9229" x2="50.7527" y1="68.6583" x1="50.7527" id="paint6_linear_204_217">
      <stop stop-color="#2f7cff"></stop>
      <stop stop-color="#91ddfb" offset="1"></stop>
    </linearGradient>
    <linearGradient gradientUnits="userSpaceOnUse" y2="76.9312" x2="48.5913" y1="74.675" x1="48.5913" id="paint7_linear_204_217">
      <stop stop-color="#2f7cff"></stop>
      <stop stop-color="#91ddfb" offset="1"></stop>
    </linearGradient>
    <linearGradient gradientUnits="userSpaceOnUse" y2="67.1541" x2="52.9153" y1="66.402" x1="52.9153" id="paint8_linear_204_217">
      <stop stop-color="#2f7cff"></stop>
      <stop stop-color="#91ddfb" offset="1"></stop>
    </linearGradient>
    <linearGradient gradientUnits="userSpaceOnUse" y2="43.8394" x2="52.1936" y1="41.5832" x1="52.1936" id="paint9_linear_204_217">
      <stop stop-color="#2f7cff"></stop>
      <stop stop-color="#91ddfb" offset="1"></stop>
    </linearGradient>
    <linearGradient gradientUnits="userSpaceOnUse" y2="29.5497" x2="57.2367" y1="27.2935" x1="57.2367" id="paint10_linear_204_217">
      <stop stop-color="#2f7cff"></stop>
      <stop stop-color="#91ddfb" offset="1"></stop>
    </linearGradient>
    <linearGradient gradientUnits="userSpaceOnUse" y2="34.8144" x2="43.9084" y1="33.3102" x1="43.9084" id="paint11_linear_204_217">
      <stop stop-color="#2f7cff"></stop>
      <stop stop-color="#91ddfb" offset="1"></stop>
    </linearGradient>
  </defs>
</svg>
