<svg width="256" height="256" viewBox="0 0 256 256" fill="none" xmlns="http://www.w3.org/2000/svg">
  <defs>
    <linearGradient id="memora-cyan" x1="54" y1="34" x2="124" y2="170" gradientUnits="userSpaceOnUse">
      <stop stop-color="#B8FFF6" />
      <stop offset="0.35" stop-color="#66E9FF" />
      <stop offset="1" stop-color="#3C78FF" />
    </linearGradient>
    <linearGradient id="memora-blue" x1="130" y1="64" x2="222" y2="188" gradientUnits="userSpaceOnUse">
      <stop stop-color="#8AF7FF" />
      <stop offset="0.38" stop-color="#43C4FF" />
      <stop offset="1" stop-color="#2335E8" />
    </linearGradient>
    <linearGradient id="memora-core" x1="87" y1="94" x2="169" y2="143" gradientUnits="userSpaceOnUse">
      <stop stop-color="#53D6FF" />
      <stop offset="1" stop-color="#2C45F5" />
    </linearGradient>
    <filter id="memora-glow" x="24" y="18" width="208" height="185" filterUnits="userSpaceOnUse" color-interpolation-filters="sRGB">
      <feFlood flood-opacity="0" result="BackgroundImageFix"/>
      <feBlend mode="normal" in="SourceGraphic" in2="BackgroundImageFix" result="shape"/>
      <feGaussianBlur stdDeviation="4" result="effect1_foregroundBlur"/>
    </filter>
  </defs>
  <g filter="url(#memora-glow)">
    <path d="M60 44L108 76C120 84 137 84 149 76L196 44L167 142C161 164 147 184 128 200C109 184 95 164 89 142L60 44Z" fill="url(#memora-core)"/>
    <path d="M54 34L111 73C121 80 136 80 146 73L177 51C169 57 163 67 160 78C154 101 167 129 188 145C196 151 206 155 216 156L215 157C182 154 157 176 140 200L115 184C99 165 88 141 82 114L54 34Z" fill="url(#memora-cyan)"/>
    <path d="M202 34L145 73C135 80 120 80 110 73L79 51C87 57 93 67 96 78C102 101 89 129 68 145C60 151 50 155 40 156L41 157C74 154 99 176 116 200L141 184C157 165 168 141 174 114L202 34Z" fill="url(#memora-blue)" transform="matrix(-1 0 0 1 256 0)"/>
  </g>
</svg>
